# xmcd
#
# Track frame offsets:
#	150
#	17009
#	31713
#	48743
#	61937
#	74157
#	88699
#	102455
#	118335
#	137152
#	153196
#	168966
#
# Disc length: 2459 seconds
#
# Revision: 2
# Processed by: cddbd v1.5.2PL0 Copyright (c) Steve Scherf et al.
# Submitted via: audiograbber 1.83.01
#
DISCID=a509990c
DTITLE=Hank Williams Jr. - Old School New Rules
DYEAR=2012
DGENRE=Country
TTITLE0=Takin Back the Country
TTITLE1=I´m Gonna Get Drunk and Play Hank Williams
TTITLE2=Three Day Trip
TTITLE3=Old School
TTITLE4=We Dont Apologize for America
TTITLE5=You Win Again
TTITLE6=The Cow Turd Blues
TTITLE7=Who's Taking Care of Number One
TTITLE8=That Ain't Good
TTITLE9=Keep the Change
TTITLE10=Stock Market Blues
TTITLE11=I Think I'll Just Stay Here and Drink
EXTD=
EXTT0=
EXTT1=
EXTT2=
EXTT3=
EXTT4=
EXTT5=
EXTT6=
EXTT7=
EXTT8=
EXTT9=
EXTT10=
EXTT11=
PLAYORDER=
